<?xml version="1.0" standalone="no"?>
<!DOCTYPE svg PUBLIC "-//W3C//DTD SVG 20010904//EN"
 "http://www.w3.org/TR/2001/REC-SVG-20010904/DTD/svg10.dtd">
<svg version="1.0" xmlns="http://www.w3.org/2000/svg"
 width="512.000000pt" height="512.000000pt" viewBox="0 0 512.000000 512.000000"
 preserveAspectRatio="xMidYMid meet">
<metadata>
Created by potrace 1.14, written by Peter Selinger 2001-2017
</metadata>
<g transform="translate(0.000000,512.000000) scale(0.100000,-0.100000)"
fill="#000000" stroke="none">
<path d="M1011 3749 c-36 -14 -47 -36 -50 -93 -1 -28 -6 -53 -11 -56 -4 -3
-205 -4 -447 -4 -347 1 -443 -1 -464 -12 -45 -23 -52 -68 -16 -110 l24 -27
454 -1 454 -1 5 -52 c5 -48 4 -52 -17 -58 -34 -8 -91 -62 -116 -109 -20 -38
-22 -57 -24 -251 -2 -230 3 -259 55 -324 99 -122 296 -107 379 29 25 42 35 85
35 150 -1 29 4 50 11 53 7 2 102 3 212 3 l200 -1 13 -27 c19 -41 77 -95 119
-114 21 -8 69 -17 108 -18 l70 -2 -1 -124 0 -123 -55 -14 c-89 -23 -158 -77
-201 -158 -16 -30 -126 -445 -193 -725 -16 -69 -12 -66 -76 -68 -33 -1 -69 -6
-80 -12 -48 -26 -42 -110 9 -128 15 -5 106 -9 203 -8 159 1 179 3 198 20 27
25 28 75 1 104 -20 21 -40 26 -87 22 -13 -1 -23 4 -23 12 0 28 170 689 184
717 19 36 64 69 104 77 27 6 32 2 47 -30 20 -42 65 -82 115 -104 47 -21 730
-26 798 -6 56 16 107 56 134 105 20 35 26 39 51 35 39 -8 84 -42 103 -78 20
-40 186 -699 179 -716 -2 -7 -10 -12 -17 -11 -64 8 -108 -23 -108 -75 0 -21 8
-40 21 -52 19 -17 39 -19 210 -20 185 -1 188 -1 210 22 29 30 29 78 1 106 -17
18 -32 21 -86 20 -64 -1 -66 0 -72 26 -4 15 -15 59 -25 97 -10 39 -20 81 -23
95 -20 103 -139 547 -155 578 -39 77 -161 162 -233 162 -10 0 -18 3 -19 8 -4
27 -3 242 1 243 3 1 34 2 68 4 104 5 172 43 217 118 l25 43 202 -2 c112 -1
206 -2 210 -3 4 0 7 -25 7 -54 -1 -77 17 -133 59 -179 123 -136 340 -92 397
82 11 34 15 92 14 242 -1 181 -3 200 -23 245 -23 49 -79 106 -114 117 -20 7
-30 47 -24 92 3 21 5 21 459 21 l456 0 24 27 c28 33 29 63 3 96 l-19 25 -454
1 c-250 1 -459 4 -464 7 -6 4 -8 18 -6 32 3 13 2 41 -1 61 -6 28 -14 38 -41
50 -64 27 -105 -8 -105 -90 0 -25 -5 -48 -12 -52 -6 -4 -213 -8 -459 -8 -425
-1 -448 -2 -468 -20 -39 -35 -24 -107 26 -123 16 -4 227 -8 471 -7 l442 1 0
-51 c0 -47 -3 -52 -29 -64 -43 -19 -99 -80 -116 -126 -8 -22 -16 -70 -18 -105
l-3 -65 -204 0 c-125 -1 -207 3 -212 9 -4 6 -22 30 -40 54 -20 27 -53 55 -83
70 l-49 26 -696 0 -696 0 -49 -26 c-30 -15 -63 -43 -83 -70 -18 -24 -36 -48
-40 -54 -5 -6 -88 -10 -213 -10 l-204 0 -3 65 c-1 36 -9 83 -17 105 -17 46
-67 102 -113 127 -29 15 -31 20 -29 65 l2 48 420 2 c536 2 492 0 515 23 27 27
26 81 -1 106 -20 18 -44 19 -463 21 -242 1 -449 2 -458 2 -15 1 -18 11 -18 55
0 78 -41 118 -99 95z m92 -581 c17 -23 19 -45 19 -207 0 -200 -5 -220 -60
-239 -37 -13 -84 8 -101 44 -7 15 -11 90 -11 195 0 193 8 222 63 237 40 11 66
2 90 -30z m3006 31 c54 -19 61 -47 61 -239 0 -189 -7 -220 -58 -238 -35 -12
-85 6 -102 38 -7 14 -12 86 -12 200 -1 193 5 220 55 240 12 5 22 9 23 9 1 1
15 -4 33 -10z m-862 -169 c47 -31 49 -94 4 -134 -19 -17 -39 -19 -210 -21
-170 -1 -192 -3 -210 -20 -42 -37 -15 -123 39 -126 29 -2 79 -6 88 -8 4 0 7
-80 7 -176 l0 -175 -28 -27 -27 -28 -338 0 c-185 0 -348 4 -362 7 -48 13 -54
38 -55 228 l-1 175 211 1 c247 0 265 5 265 73 0 26 -7 44 -21 57 -20 18 -42
19 -370 19 -349 1 -349 1 -373 24 -30 28 -35 47 -24 89 6 23 18 37 38 46 22 9
191 12 687 11 559 0 661 -3 680 -15z"/>
</g>
</svg>
